<svg width="18" height="18" viewBox="0 0 18 18" fill="none" xmlns="http://www.w3.org/2000/svg">
<path d="M15.7185 11.4937C15.8715 11.1292 15.4342 10.8187 15.0675 10.9807C14.3344 11.3025 13.5423 11.4681 12.7418 11.4667C9.603 11.4667 7.059 8.97375 7.059 5.898C7.05785 4.85951 7.35289 3.84222 7.9095 2.9655C8.1225 2.6295 7.86675 2.1645 7.47675 2.2635C4.47 3.03075 2.25 5.70975 2.25 8.8965C2.25 12.6817 5.38125 15.75 9.2445 15.75C12.1695 15.75 14.6745 13.9912 15.7185 11.4937Z" fill="black"/>
<path d="M11.7083 2.32725C11.3108 2.06175 10.8368 2.53575 11.1015 2.93325L11.574 3.642C11.7657 3.92937 11.868 4.26707 11.868 4.6125C11.868 4.95793 11.7657 5.29562 11.574 5.583L11.1015 6.29175C10.8368 6.68925 11.3115 7.16325 11.709 6.89775L12.417 6.42525C12.7044 6.23357 13.0421 6.13128 13.3875 6.13128C13.7329 6.13128 14.0706 6.23357 14.358 6.42525L15.0668 6.89775C15.4643 7.16325 15.9383 6.68925 15.6728 6.29175L15.2003 5.583C15.0086 5.29562 14.9063 4.95793 14.9063 4.6125C14.9063 4.26707 15.0086 3.92937 15.2003 3.642L15.6728 2.93325C15.9383 2.53575 15.4643 2.06175 15.066 2.32725L14.358 2.79975C14.0706 2.99142 13.7329 3.09371 13.3875 3.09371C13.0421 3.09371 12.7044 2.99142 12.417 2.79975L11.7083 2.32725Z" fill="black"/>
</svg>
