<svg width="18" height="18" viewBox="0 0 18 18" fill="none" xmlns="http://www.w3.org/2000/svg">
<g clip-path="url(#clip0_11_336)">
<path d="M9 5.25C8.00544 5.25 7.05161 5.64509 6.34835 6.34835C5.64509 7.05161 5.25 8.00544 5.25 9C5.25 9.99456 5.64509 10.9484 6.34835 11.6517C7.05161 12.3549 8.00544 12.75 9 12.75C9.99456 12.75 10.9484 12.3549 11.6517 11.6517C12.3549 10.9484 12.75 9.99456 12.75 9C12.75 8.00544 12.3549 7.05161 11.6517 6.34835C10.9484 5.64509 9.99456 5.25 9 5.25Z" fill="black"/>
<path fill-rule="evenodd" clip-rule="evenodd" d="M9 0.75C9.19891 0.75 9.38968 0.829018 9.53033 0.96967C9.67098 1.11032 9.75 1.30109 9.75 1.5V2.25C9.75 2.44891 9.67098 2.63968 9.53033 2.78033C9.38968 2.92098 9.19891 3 9 3C8.80109 3 8.61032 2.92098 8.46967 2.78033C8.32902 2.63968 8.25 2.44891 8.25 2.25V1.5C8.25 1.30109 8.32902 1.11032 8.46967 0.96967C8.61032 0.829018 8.80109 0.75 9 0.75ZM2.46975 2.46975C2.6104 2.32915 2.80113 2.25016 3 2.25016C3.19887 2.25016 3.3896 2.32915 3.53025 2.46975L4.65525 3.59475C4.79187 3.7362 4.86746 3.92565 4.86576 4.1223C4.86405 4.31895 4.78517 4.50706 4.64611 4.64611C4.50706 4.78517 4.31895 4.86405 4.1223 4.86576C3.92565 4.86746 3.7362 4.79187 3.59475 4.65525L2.46975 3.53025C2.32915 3.3896 2.25016 3.19887 2.25016 3C2.25016 2.80113 2.32915 2.6104 2.46975 2.46975ZM15.5303 2.46975C15.6709 2.6104 15.7498 2.80113 15.7498 3C15.7498 3.19887 15.6709 3.3896 15.5303 3.53025L14.4053 4.65525C14.3361 4.72688 14.2533 4.78402 14.1618 4.82333C14.0703 4.86263 13.9719 4.88332 13.8723 4.88419C13.7727 4.88505 13.674 4.86608 13.5818 4.82837C13.4896 4.79066 13.4059 4.73497 13.3355 4.66455C13.265 4.59413 13.2093 4.51039 13.1716 4.41822C13.1339 4.32604 13.1149 4.22728 13.1158 4.1277C13.1167 4.02811 13.1374 3.9297 13.1767 3.8382C13.216 3.74669 13.2731 3.66394 13.3447 3.59475L14.4697 2.46975C14.6104 2.32915 14.8011 2.25016 15 2.25016C15.1989 2.25016 15.3896 2.32915 15.5303 2.46975ZM0.75 9C0.75 8.80109 0.829018 8.61032 0.96967 8.46967C1.11032 8.32902 1.30109 8.25 1.5 8.25H2.25C2.44891 8.25 2.63968 8.32902 2.78033 8.46967C2.92098 8.61032 3 8.80109 3 9C3 9.19891 2.92098 9.38968 2.78033 9.53033C2.63968 9.67098 2.44891 9.75 2.25 9.75H1.5C1.30109 9.75 1.11032 9.67098 0.96967 9.53033C0.829018 9.38968 0.75 9.19891 0.75 9ZM15 9C15 8.80109 15.079 8.61032 15.2197 8.46967C15.3603 8.32902 15.5511 8.25 15.75 8.25H16.5C16.6989 8.25 16.8897 8.32902 17.0303 8.46967C17.171 8.61032 17.25 8.80109 17.25 9C17.25 9.19891 17.171 9.38968 17.0303 9.53033C16.8897 9.67098 16.6989 9.75 16.5 9.75H15.75C15.5511 9.75 15.3603 9.67098 15.2197 9.53033C15.079 9.38968 15 9.19891 15 9ZM4.65525 13.3447C4.79585 13.4854 4.87484 13.6761 4.87484 13.875C4.87484 14.0739 4.79585 14.2646 4.65525 14.4053L3.53025 15.5303C3.3888 15.6669 3.19935 15.7425 3.0027 15.7408C2.80605 15.739 2.61794 15.6602 2.47889 15.5211C2.33983 15.3821 2.26095 15.1939 2.25924 14.9973C2.25754 14.8007 2.33313 14.6112 2.46975 14.4697L3.59475 13.3447C3.7354 13.2041 3.92613 13.1252 4.125 13.1252C4.32387 13.1252 4.5146 13.2041 4.65525 13.3447ZM13.3447 13.3447C13.4854 13.2041 13.6761 13.1252 13.875 13.1252C14.0739 13.1252 14.2646 13.2041 14.4053 13.3447L15.5303 14.4697C15.6669 14.6112 15.7425 14.8007 15.7408 14.9973C15.739 15.1939 15.6602 15.3821 15.5211 15.5211C15.3821 15.6602 15.1939 15.739 14.9973 15.7408C14.8007 15.7425 14.6112 15.6669 14.4697 15.5303L13.3447 14.4053C13.2041 14.2646 13.1252 14.0739 13.1252 13.875C13.1252 13.6761 13.2041 13.4854 13.3447 13.3447ZM9 15C9.19891 15 9.38968 15.079 9.53033 15.2197C9.67098 15.3603 9.75 15.5511 9.75 15.75V16.5C9.75 16.6989 9.67098 16.8897 9.53033 17.0303C9.38968 17.171 9.19891 17.25 9 17.25C8.80109 17.25 8.61032 17.171 8.46967 17.0303C8.32902 16.8897 8.25 16.6989 8.25 16.5V15.75C8.25 15.5511 8.32902 15.3603 8.46967 15.2197C8.61032 15.079 8.80109 15 9 15Z" fill="black"/>
</g>
<defs>
<clipPath id="clip0_11_336">
<rect width="18" height="18" fill="white"/>
</clipPath>
</defs>
</svg>
